<?xml version="1.0" encoding="UTF-8"?>
<svg version="1.1" xmlns="http://www.w3.org/2000/svg" width="448" height="512">
<path d="M0 0 C1.40395514 -0.0040736 2.80790707 -0.00941987 4.21185303 -0.01593018 C7.99701671 -0.02951609 11.78193295 -0.02434158 15.56710052 -0.01479292 C19.54490279 -0.00715075 23.52268511 -0.0142545 27.50048828 -0.01895142 C34.17809823 -0.02439578 40.85560836 -0.01725214 47.53320312 -0.00292969 C55.23247084 0.01339432 62.93150015 0.00810487 70.6307621 -0.0084089 C77.26378215 -0.02206152 83.89673079 -0.02392505 90.52976036 -0.0160929 C94.48148883 -0.01143706 98.43310556 -0.01073355 102.38482666 -0.02070236 C106.10157577 -0.02942499 109.81802014 -0.02325456 113.53473663 -0.00601959 C115.53420096 -0.00021812 117.53369133 -0.00902486 119.53314209 -0.0184021 C141.62694202 0.13594324 153.29026916 12.25674598 168.0390625 27.09130859 C169.68750768 28.73705403 171.3365458 30.38220574 172.98614502 32.02679443 C176.42845108 35.46322824 179.86348299 38.90672735 183.29345703 42.35546875 C187.66972885 46.75452782 192.06371714 51.1353809 196.46334457 55.51106644 C199.86799961 58.90120231 203.26299029 62.30088829 206.65522003 65.70345306 C208.27086903 67.32175243 209.88944486 68.93713564 211.51110077 70.54941559 C236.03141021 94.95896486 236.03141021 94.95896486 236.20591772 113.91392326 C236.19922555 114.81180124 236.19253339 115.70967922 236.18563843 116.63476562 C236.1903184 117.61630678 236.19499837 118.59784794 236.19982016 119.60913277 C236.21170884 122.87156132 236.20233686 126.13356503 236.19287109 129.39599609 C236.19693951 131.74575036 236.2022829 134.09550272 236.20880127 136.44525146 C236.22244844 142.80881209 236.21718686 149.17222639 236.20766401 155.53578949 C236.20082612 161.52761888 236.20605293 167.51943505 236.2104456 173.51126409 C236.21898645 186.10161207 236.20918591 198.69189436 236.1930445 211.28223157 C236.17964249 222.06953491 236.18197095 232.85674138 236.19580078 243.64404297 C236.21187972 256.1914091 236.2181626 268.73871776 236.20896399 281.28609276 C236.20423166 287.92058552 236.20364518 294.55502438 236.21357346 301.18951416 C236.22225698 307.42764152 236.21619563 313.66558644 236.19889069 319.90369415 C236.19493329 322.18933052 236.19604705 324.47498231 236.20267868 326.76061249 C236.21091364 329.88781421 236.2005487 333.01443645 236.18563843 336.14160156 C236.19233059 337.03947954 236.19902276 337.93735752 236.20591772 338.86244392 C236.08656195 351.82683468 230.81518286 362.32401849 221.9921875 371.70068359 C208.68764959 384.21053812 194.67523356 384.83339845 177.3671875 384.77636719 C175.29329147 384.78043662 173.2193976 384.78578059 171.14550781 384.79229736 C165.53398282 384.80593243 159.92262396 384.80068801 154.31109619 384.79116011 C148.42744512 384.78354378 142.5438079 384.7906146 136.66015625 384.7953186 C126.78122413 384.8007704 116.90235938 384.79359962 107.0234375 384.77929688 C95.6160492 384.76297152 84.20882178 384.76826043 72.80143738 384.78477609 C62.99222948 384.79840733 53.1830699 384.8003026 43.37385559 384.79246008 C37.52183395 384.78779259 31.66988783 384.78713331 25.81787109 384.79706955 C20.31514995 384.80576075 14.81263544 384.79967789 9.30993652 384.78238678 C7.29521019 384.77843345 5.28046635 384.77953613 3.26574707 384.78617477 C-13.91043801 384.83753646 -26.46376701 382.84950926 -39.5078125 370.57568359 C-49.69304751 359.74343571 -52.65999322 348.10434071 -52.57626343 333.56005859 C-52.5809434 332.30083588 -52.58562337 331.04161316 -52.59044516 329.74423218 C-52.6028936 326.27436411 -52.59681317 322.80474563 -52.58748651 319.33487701 C-52.5806709 315.58293523 -52.59118964 311.83103497 -52.59942627 308.07910156 C-52.61273911 300.73906613 -52.60989681 293.39912293 -52.60118835 286.05908394 C-52.59440255 280.09162771 -52.59349895 274.12419726 -52.5967598 268.15673828 C-52.5972195 267.30616915 -52.59767919 266.45560001 -52.59815282 265.57925606 C-52.59911204 263.8511327 -52.60008468 262.12300936 -52.6010706 260.39488602 C-52.60961732 244.20495533 -52.59980164 228.01507567 -52.5836695 211.82515335 C-52.57026697 197.94509622 -52.57259526 184.06511437 -52.58642578 170.18505859 C-52.60249429 154.05153159 -52.60879341 137.91804927 -52.59958899 121.78451538 C-52.59863338 120.06288656 -52.59769027 118.34125774 -52.5967598 116.61962891 C-52.59629697 115.77263994 -52.59583414 114.92565098 -52.59535729 114.05299568 C-52.59277122 108.0953781 -52.59713014 102.13778896 -52.60419846 96.18017578 C-52.61262778 88.91600432 -52.61030326 81.65193007 -52.59435622 74.3877697 C-52.58649273 70.68421964 -52.58334891 66.98083143 -52.59330368 63.27728271 C-52.60394655 59.25681819 -52.59120566 55.23675941 -52.57626343 51.21630859 C-52.58295559 50.05384613 -52.58964776 48.89138367 -52.59654272 47.69369507 C-52.49681286 33.84146045 -47.90722559 23.19778252 -38.3828125 13.07568359 C-27.07135345 2.43986083 -15.13026414 -0.07095952 0 0 Z " fill="#FFFFFF" transform="translate(212.1953125,-0.38818359375)"/>
<path d="M0 0 C2.00352662 0.00560313 4.00705738 0.00986984 6.0105896 0.01286316 C11.25489882 0.02425546 16.49895431 0.05367377 21.74316406 0.0869751 C28.05086525 0.12322763 34.35865181 0.13686389 40.66642761 0.15433502 C50.22310677 0.18331484 59.77923041 0.24084126 69.3359375 0.29296875 C69.3359375 21.41296875 69.3359375 42.53296875 69.3359375 64.29296875 C48.2159375 64.29296875 27.0959375 64.29296875 5.3359375 64.29296875 C5.3359375 148.77296875 5.3359375 233.25296875 5.3359375 320.29296875 C68.6959375 320.29296875 132.0559375 320.29296875 197.3359375 320.29296875 C197.3359375 309.73296875 197.3359375 299.17296875 197.3359375 288.29296875 C218.4559375 288.29296875 239.5759375 288.29296875 261.3359375 288.29296875 C261.42875 302.33859375 261.42875 302.33859375 261.5234375 316.66796875 C261.55074951 319.60493652 261.57806152 322.5419043 261.60620117 325.56787109 C261.61497116 327.92154531 261.62261388 330.27522411 261.62890625 332.62890625 C261.6519281 334.43065308 261.6519281 334.43065308 261.67541504 336.26879883 C261.67979626 350.48440541 257.32234288 361.1916523 247.5234375 371.60546875 C237.5938658 380.94194464 226.40405423 384.77257994 212.9375 384.67391968 C211.93962463 384.67859965 210.94174927 384.68327962 209.91363525 384.68810141 C206.59593099 384.69999291 203.27864426 384.69061697 199.9609375 384.68115234 C197.57177491 384.68522063 195.1826142 384.69056395 192.79345703 384.69708252 C186.99347077 384.7093159 181.19361544 384.70756144 175.39362526 384.6988446 C170.67712068 384.69205143 165.9606487 384.69115837 161.24414062 384.69441605 C160.57119461 384.69487575 159.8982486 384.69533544 159.20491028 384.69580907 C157.83755492 384.69676831 156.47019958 384.69774095 155.10284424 384.69872685 C142.30075619 384.70726813 129.49873273 384.69746647 116.69665527 384.68132575 C105.72742535 384.6679237 94.7582907 384.67025215 83.7890625 384.68408203 C71.03074578 384.70016019 58.27248559 384.70644428 45.51416016 384.69724524 C44.15201824 384.69628966 42.78987631 384.69534654 41.42773438 384.69441605 C40.75764847 384.69395322 40.08756256 384.69349039 39.39717102 384.69301354 C34.68989701 384.69043035 29.98265905 384.69478012 25.27539062 384.70185471 C18.93220506 384.71053728 12.58919895 384.7044786 6.24603271 384.68717194 C3.92169492 384.68321403 1.59734196 384.68432917 -0.72698975 384.69095993 C-3.90673692 384.69919287 -7.08591386 384.68883232 -10.265625 384.67391968 C-11.17906677 384.68061184 -12.09250854 384.68730401 -13.03363037 384.69419897 C-26.05045971 384.57629374 -36.55550971 379.3452308 -45.9765625 370.48046875 C-56.16179751 359.64822086 -59.12874322 348.00912587 -59.04501343 333.46484375 C-59.0496934 332.20562103 -59.05437337 330.94639832 -59.05919516 329.64901733 C-59.0716436 326.17914926 -59.06556317 322.70953078 -59.05623651 319.23966217 C-59.0494209 315.48772038 -59.05993964 311.73582013 -59.06817627 307.98388672 C-59.08148911 300.64385129 -59.07864681 293.30390808 -59.06993835 285.96386909 C-59.06315255 279.99641287 -59.06224895 274.02898242 -59.0655098 268.06152344 C-59.0659695 267.2109543 -59.06642919 266.36038517 -59.06690282 265.48404121 C-59.06786204 263.75591786 -59.06883468 262.02779451 -59.0698206 260.29967117 C-59.07836732 244.10974048 -59.06855164 227.91986083 -59.0524195 211.72993851 C-59.03901697 197.84988138 -59.04134526 183.96989952 -59.05517578 170.08984375 C-59.07124429 153.95631675 -59.07754341 137.82283443 -59.06833899 121.68930054 C-59.06738338 119.96767172 -59.06644027 118.24604289 -59.0655098 116.52441406 C-59.06504697 115.6774251 -59.06458414 114.83043613 -59.06410729 113.95778084 C-59.06152122 108.00016326 -59.06588014 102.04257411 -59.07294846 96.08496094 C-59.08137778 88.82078948 -59.07905326 81.55671523 -59.06310622 74.29255486 C-59.05524273 70.5890048 -59.05209891 66.88561659 -59.06205368 63.18206787 C-59.07269655 59.16160335 -59.05995566 55.14154456 -59.04501343 51.12109375 C-59.05170559 49.95863129 -59.05839776 48.79616882 -59.06529272 47.59848022 C-58.96556286 33.74624561 -54.37597559 23.10256768 -44.8515625 12.98046875 C-31.4620863 0.39074932 -17.41221011 -0.14349437 0 0 Z " fill="#FFFFFF" transform="translate(58.6640625,127.70703125)"/>
</svg>
